<?xml version="1.0" encoding="UTF-8" standalone="no"?>
<!-- Created with Inkscape (http://www.inkscape.org/) -->

<svg
   width="1080"
   height="1920"
   viewBox="0 0 301.71576 536.38357"
   version="1.1"
   id="svg1"
   inkscape:version="1.3.2 (091e20e, 2023-11-25)"
   sodipodi:docname="drawing.svg"
   inkscape:export-filename="bg-2.svg"
   inkscape:export-xdpi="96"
   inkscape:export-ydpi="96"
   xmlns:inkscape="http://www.inkscape.org/namespaces/inkscape"
   xmlns:sodipodi="http://sodipodi.sourceforge.net/DTD/sodipodi-0.dtd"
   xmlns="http://www.w3.org/2000/svg"
   xmlns:svg="http://www.w3.org/2000/svg">
  <sodipodi:namedview
     id="namedview1"
     pagecolor="#ffffff"
     bordercolor="#000000"
     borderopacity="0.25"
     inkscape:showpageshadow="2"
     inkscape:pageopacity="0.0"
     inkscape:pagecheckerboard="0"
     inkscape:deskcolor="#d1d1d1"
     inkscape:document-units="px"
     inkscape:zoom="0.2102413"
     inkscape:cx="394.78447"
     inkscape:cy="1319.9119"
     inkscape:window-width="1472"
     inkscape:window-height="834"
     inkscape:window-x="127"
     inkscape:window-y="73"
     inkscape:window-maximized="0"
     inkscape:current-layer="layer1" />
  <defs
     id="defs1">
    <clipPath
       clipPathUnits="userSpaceOnUse"
       id="clipPath751">
      <path
         d="M 0,0 H 2159.817 V 1439.942 H 0 Z"
         transform="translate(-121.96011,263.81048)"
         id="path751" />
    </clipPath>
    <clipPath
       clipPathUnits="userSpaceOnUse"
       id="clipPath753">
      <path
         d="M 0,0 H 2159.817 V 1439.942 H 0 Z"
         transform="translate(-110.3082,-212.73728)"
         id="path753" />
    </clipPath>
    <clipPath
       clipPathUnits="userSpaceOnUse"
       id="clipPath755">
      <path
         d="M 0,0 H 2159.817 V 1439.942 H 0 Z"
         transform="translate(-82.050902,-576.04794)"
         id="path755" />
    </clipPath>
    <clipPath
       clipPathUnits="userSpaceOnUse"
       id="clipPath757">
      <path
         d="M 0,0 H 2159.817 V 1439.942 H 0 Z"
         transform="translate(-176.7892,308.84768)"
         id="path757" />
    </clipPath>
    <clipPath
       clipPathUnits="userSpaceOnUse"
       id="clipPath759">
      <path
         d="M 0,0 H 2159.817 V 1439.942 H 0 Z"
         transform="translate(-34.511101,-347.39648)"
         id="path759" />
    </clipPath>
    <clipPath
       clipPathUnits="userSpaceOnUse"
       id="clipPath761">
      <path
         d="M 0,0 H 2159.817 V 1439.942 H 0 Z"
         transform="translate(-34.511101,-300.99998)"
         id="path761" />
    </clipPath>
    <clipPath
       clipPathUnits="userSpaceOnUse"
       id="clipPath763">
      <path
         d="M 0,0 H 2159.817 V 1439.942 H 0 Z"
         transform="translate(-34.511101,-254.60348)"
         id="path763" />
    </clipPath>
    <clipPath
       clipPathUnits="userSpaceOnUse"
       id="clipPath765">
      <path
         d="M 0,0 H 2159.817 V 1439.942 H 0 Z"
         transform="translate(-34.510801,-208.20698)"
         id="path765" />
    </clipPath>
    <clipPath
       clipPathUnits="userSpaceOnUse"
       id="clipPath767">
      <path
         d="M 0,0 H 2159.817 V 1439.942 H 0 Z"
         transform="translate(-34.511101,-161.81048)"
         id="path767" />
    </clipPath>
    <clipPath
       clipPathUnits="userSpaceOnUse"
       id="clipPath769">
      <path
         d="M 0,0 H 2159.817 V 1439.942 H 0 Z"
         transform="translate(-34.511101,-115.41413)"
         id="path769" />
    </clipPath>
    <clipPath
       clipPathUnits="userSpaceOnUse"
       id="clipPath771">
      <path
         d="M 0,0 H 2159.817 V 1439.942 H 0 Z"
         transform="translate(-34.510801,-69.017627)"
         id="path771" />
    </clipPath>
    <clipPath
       clipPathUnits="userSpaceOnUse"
       id="clipPath787">
      <path
         d="M 0,0 H 2159.817 V 1439.942 H 0 Z"
         transform="translate(-149.7652,-473.99709)"
         id="path787" />
    </clipPath>
    <clipPath
       clipPathUnits="userSpaceOnUse"
       id="clipPath789">
      <path
         d="M 0,0 H 2159.817 V 1439.942 H 0 Z"
         transform="translate(-164.3824,-488.61519)"
         id="path789" />
    </clipPath>
    <clipPath
       clipPathUnits="userSpaceOnUse"
       id="clipPath717">
      <path
         d="M 0,0 H 2159.817 V 1439.942 H 0 Z"
         transform="translate(-2455.0933,-1737.8975)"
         id="path717" />
    </clipPath>
    <clipPath
       clipPathUnits="userSpaceOnUse"
       id="clipPath719">
      <path
         d="M 0,0 H 2159.817 V 1439.942 H 0 Z"
         transform="translate(-2126.3623,-1392.6885)"
         id="path719" />
    </clipPath>
    <clipPath
       clipPathUnits="userSpaceOnUse"
       id="clipPath721">
      <path
         d="M 0,0 H 2159.817 V 1439.942 H 0 Z"
         transform="translate(-1889.4435,-1115.8076)"
         id="path721" />
    </clipPath>
    <clipPath
       clipPathUnits="userSpaceOnUse"
       id="clipPath723">
      <path
         d="M 0,0 H 2159.817 V 1439.942 H 0 Z"
         transform="translate(-1988.4205,-1609.4893)"
         id="path723" />
    </clipPath>
    <clipPath
       clipPathUnits="userSpaceOnUse"
       id="clipPath725">
      <path
         d="M 0,0 H 2159.817 V 1439.942 H 0 Z"
         transform="translate(-1726.3126,-1290.9414)"
         id="path725" />
    </clipPath>
    <clipPath
       clipPathUnits="userSpaceOnUse"
       id="clipPath727">
      <path
         d="M 0,0 H 2159.817 V 1439.942 H 0 Z"
         transform="translate(-2374.2916,-1283.2256)"
         id="path727" />
    </clipPath>
    <clipPath
       clipPathUnits="userSpaceOnUse"
       id="clipPath729">
      <path
         d="M 0,0 H 2159.817 V 1439.942 H 0 Z"
         transform="translate(-1945.3434,-753.41312)"
         id="path729" />
    </clipPath>
    <clipPath
       clipPathUnits="userSpaceOnUse"
       id="clipPath731">
      <path
         d="M 0,0 H 2159.817 V 1439.942 H 0 Z"
         transform="translate(-2086.1202,-1011.3916)"
         id="path731" />
    </clipPath>
    <clipPath
       clipPathUnits="userSpaceOnUse"
       id="clipPath733">
      <path
         d="M 0,0 H 2159.817 V 1439.942 H 0 Z"
         transform="translate(-2405.8746,-1766.2188)"
         id="path733" />
    </clipPath>
    <clipPath
       clipPathUnits="userSpaceOnUse"
       id="clipPath735">
      <path
         d="M 0,0 H 2159.817 V 1439.942 H 0 Z"
         transform="translate(-1982.9241,-1343.2686)"
         id="path735" />
    </clipPath>
    <clipPath
       clipPathUnits="userSpaceOnUse"
       id="clipPath737">
      <path
         d="M 0,0 H 2159.817 V 1439.942 H 0 Z"
         transform="translate(-2108.0748,-1220.5391)"
         id="path737" />
    </clipPath>
    <clipPath
       clipPathUnits="userSpaceOnUse"
       id="clipPath739">
      <path
         d="M 0,0 H 2159.817 V 1439.942 H 0 Z"
         transform="translate(-2140.8823,-1253.3457)"
         id="path739" />
    </clipPath>
    <clipPath
       clipPathUnits="userSpaceOnUse"
       id="clipPath741">
      <path
         d="M 0,0 H 2159.817 V 1439.942 H 0 Z"
         transform="translate(-2173.6896,-1286.1533)"
         id="path741" />
    </clipPath>
    <clipPath
       clipPathUnits="userSpaceOnUse"
       id="clipPath743">
      <path
         d="M 0,0 H 2159.817 V 1439.942 H 0 Z"
         transform="translate(-2206.4967,-1318.96)"
         id="path743" />
    </clipPath>
    <clipPath
       clipPathUnits="userSpaceOnUse"
       id="clipPath745">
      <path
         d="M 0,0 H 2159.817 V 1439.942 H 0 Z"
         transform="translate(-2277.3394,-1304.5498)"
         id="path745" />
    </clipPath>
    <clipPath
       clipPathUnits="userSpaceOnUse"
       id="clipPath747">
      <path
         d="M 0,0 H 2159.817 V 1439.942 H 0 Z"
         transform="translate(-1901.7018,-1283.2256)"
         id="path747" />
    </clipPath>
    <clipPath
       clipPathUnits="userSpaceOnUse"
       id="clipPath749">
      <path
         d="M 0,0 H 2159.817 V 1439.942 H 0 Z"
         transform="translate(-1881.03,-1283.2256)"
         id="path749" />
    </clipPath>
    <clipPath
       clipPathUnits="userSpaceOnUse"
       id="clipPath773">
      <path
         d="M 0,0 H 2159.817 V 1439.942 H 0 Z"
         transform="translate(-2122.8912,-347.39648)"
         id="path773" />
    </clipPath>
    <clipPath
       clipPathUnits="userSpaceOnUse"
       id="clipPath775">
      <path
         d="M 0,0 H 2159.817 V 1439.942 H 0 Z"
         transform="translate(-2122.8912,-300.99998)"
         id="path775" />
    </clipPath>
    <clipPath
       clipPathUnits="userSpaceOnUse"
       id="clipPath777">
      <path
         d="M 0,0 H 2159.817 V 1439.942 H 0 Z"
         transform="translate(-2122.8912,-254.60348)"
         id="path777" />
    </clipPath>
    <clipPath
       clipPathUnits="userSpaceOnUse"
       id="clipPath779">
      <path
         d="M 0,0 H 2159.817 V 1439.942 H 0 Z"
         transform="translate(-2122.8912,-208.20698)"
         id="path779" />
    </clipPath>
    <clipPath
       clipPathUnits="userSpaceOnUse"
       id="clipPath781">
      <path
         d="M 0,0 H 2159.817 V 1439.942 H 0 Z"
         transform="translate(-2122.8912,-161.81048)"
         id="path781" />
    </clipPath>
    <clipPath
       clipPathUnits="userSpaceOnUse"
       id="clipPath783">
      <path
         d="M 0,0 H 2159.817 V 1439.942 H 0 Z"
         transform="translate(-2122.8912,-115.41413)"
         id="path783" />
    </clipPath>
    <clipPath
       clipPathUnits="userSpaceOnUse"
       id="clipPath785">
      <path
         d="M 0,0 H 2159.817 V 1439.942 H 0 Z"
         transform="translate(-2122.8912,-69.017627)"
         id="path785" />
    </clipPath>
  </defs>
  <g
     inkscape:label="Layer 1"
     inkscape:groupmode="layer"
     id="layer1">
    <path
       id="path750"
       d="m 0,0 v 691.068 l -48.659,48.66 v 91.381"
       style="fill:none;stroke:#07a4d2;stroke-width:2;stroke-linecap:butt;stroke-linejoin:miter;stroke-miterlimit:10;stroke-dasharray:none;stroke-opacity:1"
       transform="matrix(0.24190207,0,0,-0.24190207,29.455274,599.14386)"
       clip-path="url(#clipPath751)" />
    <path
       id="path752"
       d="M 0,0 V 73.975 L 11.067,84.307 V -10.332 Z"
       style="fill:none;stroke:#07a4d2;stroke-width:2;stroke-linecap:butt;stroke-linejoin:miter;stroke-miterlimit:10;stroke-dasharray:none;stroke-opacity:1"
       transform="matrix(0.24190207,0,0,-0.24190207,26.636656,483.86598)"
       clip-path="url(#clipPath753)" />
    <path
       id="path754"
       d="m 0,0 c 4.832,-4.832 4.832,-12.666 0,-17.498 -4.832,-4.833 -12.667,-4.832 -17.499,0 -4.832,4.832 -4.832,12.666 0,17.499 C -12.667,4.833 -4.832,4.833 0,0 Z"
       style="fill:none;stroke:#07a4d2;stroke-width:2;stroke-linecap:butt;stroke-linejoin:miter;stroke-miterlimit:10;stroke-dasharray:none;stroke-opacity:1"
       transform="matrix(0.24190207,0,0,-0.24190207,19.80115,395.98037)"
       clip-path="url(#clipPath755)" />
    <path
       id="path756"
       d="M 0,0 V 657.956"
       style="fill:none;stroke:#07a4d2;stroke-width:2;stroke-linecap:butt;stroke-linejoin:miter;stroke-miterlimit:10;stroke-dasharray:none;stroke-opacity:1"
       transform="matrix(0.24190207,0,0,-0.24190207,42.718545,610.03845)"
       clip-path="url(#clipPath757)" />
    <path
       id="path758"
       d="M 0,0 34.38,34.381 V 49.865 L 0,15.485 Z"
       style="fill:none;stroke:#07a4d2;stroke-width:2;stroke-linecap:butt;stroke-linejoin:miter;stroke-miterlimit:10;stroke-dasharray:none;stroke-opacity:1"
       transform="matrix(0.24190207,0,0,-0.24190207,8.3011761,451.29163)"
       clip-path="url(#clipPath759)" />
    <path
       id="path760"
       d="M 0,0 34.38,34.381 V 49.866 L 0,15.485 Z"
       style="fill:none;stroke:#07a4d2;stroke-width:2;stroke-linecap:butt;stroke-linejoin:miter;stroke-miterlimit:10;stroke-dasharray:none;stroke-opacity:1"
       transform="matrix(0.24190207,0,0,-0.24190207,8.3011761,462.51504)"
       clip-path="url(#clipPath761)" />
    <path
       id="path762"
       d="M 0,0 34.38,34.381 V 49.866 L 0,15.485 Z"
       style="fill:none;stroke:#07a4d2;stroke-width:2;stroke-linecap:butt;stroke-linejoin:miter;stroke-miterlimit:10;stroke-dasharray:none;stroke-opacity:1"
       transform="matrix(0.24190207,0,0,-0.24190207,8.3011761,473.73846)"
       clip-path="url(#clipPath763)" />
    <path
       id="path764"
       d="M 0,0 34.38,34.381 V 49.866 L 0,15.485 Z"
       style="fill:none;stroke:#07a4d2;stroke-width:2;stroke-linecap:butt;stroke-linejoin:miter;stroke-miterlimit:10;stroke-dasharray:none;stroke-opacity:1"
       transform="matrix(0.24190207,0,0,-0.24190207,8.3011048,484.96186)"
       clip-path="url(#clipPath765)" />
    <path
       id="path766"
       d="M 0,0 34.38,34.381 V 49.866 L 0,15.485 Z"
       style="fill:none;stroke:#07a4d2;stroke-width:2;stroke-linecap:butt;stroke-linejoin:miter;stroke-miterlimit:10;stroke-dasharray:none;stroke-opacity:1"
       transform="matrix(0.24190207,0,0,-0.24190207,8.3011761,496.18527)"
       clip-path="url(#clipPath767)" />
    <path
       id="path768"
       d="M 0,0 34.38,34.381 V 49.866 L 0,15.485 Z"
       style="fill:none;stroke:#07a4d2;stroke-width:2;stroke-linecap:butt;stroke-linejoin:miter;stroke-miterlimit:10;stroke-dasharray:none;stroke-opacity:1"
       transform="matrix(0.24190207,0,0,-0.24190207,8.3011761,507.40864)"
       clip-path="url(#clipPath769)" />
    <path
       id="path770"
       d="M 0,0 34.38,34.381 V 49.866 L 0,15.485 Z"
       style="fill:none;stroke:#07a4d2;stroke-width:2;stroke-linecap:butt;stroke-linejoin:miter;stroke-miterlimit:10;stroke-dasharray:none;stroke-opacity:1"
       transform="matrix(0.24190207,0,0,-0.24190207,8.3011048,518.63205)"
       clip-path="url(#clipPath771)" />
    <path
       id="path786"
       d="m 0,0 c -14.898,14.898 -14.898,39.053 0,53.951 14.898,14.898 39.052,14.898 53.95,0 C 68.849,39.053 68.849,14.898 53.951,0 39.053,-14.897 14.898,-14.897 0,0 Z"
       style="fill:none;stroke:#07a4d2;stroke-width:2;stroke-linecap:butt;stroke-linejoin:miter;stroke-miterlimit:10;stroke-dasharray:none;stroke-opacity:1"
       transform="matrix(0.24190207,0,0,-0.24190207,36.181384,420.66669)"
       clip-path="url(#clipPath787)" />
    <path
       id="path788"
       d="m 0,0 c -6.825,6.824 -6.825,17.891 0,24.716 6.825,6.825 17.891,6.825 24.716,0 C 31.541,17.891 31.541,6.824 24.716,0 17.891,-6.825 6.825,-6.825 0,0 Z"
       style="fill:none;stroke:#07a4d2;stroke-width:2;stroke-linecap:butt;stroke-linejoin:miter;stroke-miterlimit:10;stroke-dasharray:none;stroke-opacity:1"
       transform="matrix(0.24190207,0,0,-0.24190207,39.717315,417.13054)"
       clip-path="url(#clipPath789)" />
    <path
       id="path716"
       d="m 0,0 -488.66,-488.659 v -68.814 l -64.616,-64.617"
       style="fill:none;stroke:#07a4d2;stroke-width:2;stroke-linecap:butt;stroke-linejoin:miter;stroke-miterlimit:10;stroke-dasharray:none;stroke-opacity:1"
       transform="matrix(0.21560872,0,0,-0.21560872,365.10376,-62.73704)"
       clip-path="url(#clipPath717)" />
    <path
       id="path718"
       d="m 0,0 -52.308,-52.309 -15.132,0.52 66.92,66.921 z"
       style="fill:none;stroke:#07a4d2;stroke-width:2;stroke-linecap:butt;stroke-linejoin:miter;stroke-miterlimit:10;stroke-dasharray:none;stroke-opacity:1"
       transform="matrix(0.21560872,0,0,-0.21560872,294.22648,11.693036)"
       clip-path="url(#clipPath719)" />
    <path
       id="path720"
       d="m 0,0 c 0,6.834 5.54,12.374 12.374,12.374 6.834,0 12.373,-5.54 12.373,-12.374 0,-6.834 -5.539,-12.374 -12.373,-12.374 C 5.54,-12.374 0,-6.834 0,0 Z"
       style="fill:none;stroke:#07a4d2;stroke-width:2;stroke-linecap:butt;stroke-linejoin:miter;stroke-miterlimit:10;stroke-dasharray:none;stroke-opacity:1"
       transform="matrix(0.21560872,0,0,-0.21560872,243.14473,71.390972)"
       clip-path="url(#clipPath721)" />
    <path
       id="path722"
       d="m 0,0 -185.118,-185.117 v -68.815 l -64.617,-64.616"
       style="fill:none;stroke:#07a4d2;stroke-width:2;stroke-linecap:butt;stroke-linejoin:miter;stroke-miterlimit:10;stroke-dasharray:none;stroke-opacity:1"
       transform="matrix(0.21560872,0,0,-0.21560872,264.48502,-35.05111)"
       clip-path="url(#clipPath723)" />
    <path
       id="path724"
       d="m 0,0 c 0,6.834 5.54,12.373 12.373,12.373 6.834,0 12.374,-5.539 12.374,-12.373 0,-6.834 -5.54,-12.374 -12.374,-12.374 C 5.54,-12.374 0,-6.834 0,0 Z"
       style="fill:none;stroke:#07a4d2;stroke-width:2;stroke-linecap:butt;stroke-linejoin:miter;stroke-miterlimit:10;stroke-dasharray:none;stroke-opacity:1"
       transform="matrix(0.21560872,0,0,-0.21560872,207.97227,33.630598)"
       clip-path="url(#clipPath725)" />
    <path
       id="path726"
       d="M 0,0 -300.408,-300.407 V -413.646 L -416.575,-529.812"
       style="fill:none;stroke:#07a4d2;stroke-width:2;stroke-linecap:butt;stroke-linejoin:miter;stroke-miterlimit:10;stroke-dasharray:none;stroke-opacity:1"
       transform="matrix(0.21560872,0,0,-0.21560872,347.68219,35.294192)"
       clip-path="url(#clipPath727)" />
    <path
       id="path728"
       d="m 0,0 c 0,6.833 5.54,12.373 12.374,12.373 6.834,0 12.373,-5.54 12.373,-12.373 0,-6.834 -5.539,-12.374 -12.373,-12.374 C 5.54,-12.374 0,-6.834 0,0 Z"
       style="fill:none;stroke:#07a4d2;stroke-width:2;stroke-linecap:butt;stroke-linejoin:miter;stroke-miterlimit:10;stroke-dasharray:none;stroke-opacity:1"
       transform="matrix(0.21560872,0,0,-0.21560872,255.19723,149.5264)"
       clip-path="url(#clipPath729)" />
    <path
       id="path730"
       d="M 0,0 52.308,52.309 67.44,51.789 0.52,-15.132 Z"
       style="fill:none;stroke:#07a4d2;stroke-width:2;stroke-linecap:butt;stroke-linejoin:miter;stroke-miterlimit:10;stroke-dasharray:none;stroke-opacity:1"
       transform="matrix(0.21560872,0,0,-0.21560872,285.54993,93.903977)"
       clip-path="url(#clipPath731)" />
    <path
       id="path732"
       d="M 0,0 -401.803,-401.803"
       style="fill:none;stroke:#07a4d2;stroke-width:2;stroke-linecap:butt;stroke-linejoin:miter;stroke-miterlimit:10;stroke-dasharray:none;stroke-opacity:1"
       transform="matrix(0.21560872,0,0,-0.21560872,354.49176,-68.843358)"
       clip-path="url(#clipPath733)" />
    <path
       id="path734"
       d="M 0,0 V 0"
       style="fill:none;stroke:#07a4d2;stroke-width:2;stroke-linecap:butt;stroke-linejoin:miter;stroke-miterlimit:10;stroke-dasharray:none;stroke-opacity:1"
       transform="matrix(0.21560872,0,0,-0.21560872,263.29995,22.348397)"
       clip-path="url(#clipPath735)" />
    <path
       id="path736"
       d="m 0,0 -48.621,-0.001 -10.95,-10.949 h 48.622 z"
       style="fill:none;stroke:#07a4d2;stroke-width:2;stroke-linecap:butt;stroke-linejoin:miter;stroke-miterlimit:10;stroke-dasharray:none;stroke-opacity:1"
       transform="matrix(0.21560872,0,0,-0.21560872,290.28353,48.809948)"
       clip-path="url(#clipPath737)" />
    <path
       id="path738"
       d="m 0,0 h -48.622 l -10.949,-10.95 48.621,10e-4 z"
       style="fill:none;stroke:#07a4d2;stroke-width:2;stroke-linecap:butt;stroke-linejoin:miter;stroke-miterlimit:10;stroke-dasharray:none;stroke-opacity:1"
       transform="matrix(0.21560872,0,0,-0.21560872,297.35712,41.73656)"
       clip-path="url(#clipPath739)" />
    <path
       id="path740"
       d="M 0,0 H -48.622 L -59.571,-10.95 H -10.95 Z"
       style="fill:none;stroke:#07a4d2;stroke-width:2;stroke-linecap:butt;stroke-linejoin:miter;stroke-miterlimit:10;stroke-dasharray:none;stroke-opacity:1"
       transform="matrix(0.21560872,0,0,-0.21560872,304.43065,34.662954)"
       clip-path="url(#clipPath741)" />
    <path
       id="path742"
       d="m 0,0 h -48.621 l -10.95,-10.949 h 48.621 z"
       style="fill:none;stroke:#07a4d2;stroke-width:2;stroke-linecap:butt;stroke-linejoin:miter;stroke-miterlimit:10;stroke-dasharray:none;stroke-opacity:1"
       transform="matrix(0.21560872,0,0,-0.21560872,311.50415,27.589544)"
       clip-path="url(#clipPath743)" />
    <path
       id="path744"
       d="M 0,0 -235.043,-235.044"
       style="fill:none;stroke:#07a4d2;stroke-width:2;stroke-linecap:butt;stroke-linejoin:miter;stroke-miterlimit:10;stroke-dasharray:none;stroke-opacity:1"
       transform="matrix(0.21560872,0,0,-0.21560872,326.77847,30.696509)"
       clip-path="url(#clipPath745)" />
    <path
       id="path746"
       d="m 0,0 c 0,-21.068 -17.08,-38.148 -38.148,-38.148 -21.07,0 -38.149,17.08 -38.149,38.148 0,21.069 17.079,38.149 38.149,38.149 C -17.08,38.149 0,21.069 0,0 Z"
       style="fill:none;stroke:#07a4d2;stroke-width:2;stroke-linecap:butt;stroke-linejoin:miter;stroke-miterlimit:10;stroke-dasharray:none;stroke-opacity:1"
       transform="matrix(0.21560872,0,0,-0.21560872,245.78773,35.294192)"
       clip-path="url(#clipPath747)" />
    <path
       id="path748"
       d="m 0,0 c 0,-9.652 -7.825,-17.477 -17.477,-17.477 -9.652,0 -17.477,7.825 -17.477,17.477 0,9.652 7.825,17.478 17.477,17.478 C -7.825,17.478 0,9.652 0,0 Z"
       style="fill:none;stroke:#07a4d2;stroke-width:2;stroke-linecap:butt;stroke-linejoin:miter;stroke-miterlimit:10;stroke-dasharray:none;stroke-opacity:1"
       transform="matrix(0.21560872,0,0,-0.21560872,241.33069,35.294192)"
       clip-path="url(#clipPath749)" />
    <path
       id="path772"
       d="M 0,0 -34.38,34.381 V 49.865 L 0,15.485 Z"
       style="fill:none;stroke:#07a4d2;stroke-width:2;stroke-linecap:butt;stroke-linejoin:miter;stroke-miterlimit:10;stroke-dasharray:none;stroke-opacity:1"
       transform="matrix(0.29206304,0,0,-0.29206304,292.77461,419.9777)"
       clip-path="url(#clipPath773)" />
    <path
       id="path774"
       d="M 0,0 -34.38,34.381 V 49.866 L 0,15.485 Z"
       style="fill:none;stroke:#07a4d2;stroke-width:2;stroke-linecap:butt;stroke-linejoin:miter;stroke-miterlimit:10;stroke-dasharray:none;stroke-opacity:1"
       transform="matrix(0.29206304,0,0,-0.29206304,292.77461,433.52841)"
       clip-path="url(#clipPath775)" />
    <path
       id="path776"
       d="M 0,0 -34.38,34.381 V 49.866 L 0,15.485 Z"
       style="fill:none;stroke:#07a4d2;stroke-width:2;stroke-linecap:butt;stroke-linejoin:miter;stroke-miterlimit:10;stroke-dasharray:none;stroke-opacity:1"
       transform="matrix(0.29206304,0,0,-0.29206304,292.77461,447.07911)"
       clip-path="url(#clipPath777)" />
    <path
       id="path778"
       d="M 0,0 -34.38,34.381 V 49.866 L 0,15.485 Z"
       style="fill:none;stroke:#07a4d2;stroke-width:2;stroke-linecap:butt;stroke-linejoin:miter;stroke-miterlimit:10;stroke-dasharray:none;stroke-opacity:1"
       transform="matrix(0.29206304,0,0,-0.29206304,292.77461,460.62981)"
       clip-path="url(#clipPath779)" />
    <path
       id="path780"
       d="M 0,0 -34.38,34.381 V 49.866 L 0,15.485 Z"
       style="fill:none;stroke:#07a4d2;stroke-width:2;stroke-linecap:butt;stroke-linejoin:miter;stroke-miterlimit:10;stroke-dasharray:none;stroke-opacity:1"
       transform="matrix(0.29206304,0,0,-0.29206304,292.77461,474.18052)"
       clip-path="url(#clipPath781)" />
    <path
       id="path782"
       d="M 0,0 -34.38,34.381 V 49.866 L 0,15.485 Z"
       style="fill:none;stroke:#07a4d2;stroke-width:2;stroke-linecap:butt;stroke-linejoin:miter;stroke-miterlimit:10;stroke-dasharray:none;stroke-opacity:1"
       transform="matrix(0.29206304,0,0,-0.29206304,292.77461,487.73117)"
       clip-path="url(#clipPath783)" />
    <path
       id="path784"
       d="M 0,0 -34.38,34.381 V 49.866 L 0,15.485 Z"
       style="fill:none;stroke:#07a4d2;stroke-width:2;stroke-linecap:butt;stroke-linejoin:miter;stroke-miterlimit:10;stroke-dasharray:none;stroke-opacity:1"
       transform="matrix(0.29206304,0,0,-0.29206304,292.77461,501.28188)"
       clip-path="url(#clipPath785)" />
  </g>
</svg>
